# xmcd CD database file
#
# Track frame offsets:
#	150
#	15571
#	29454
#	42353
#	56618
#	70867
#	82373
#	97268
#	109556
#	124179
#	137647
#	151310
#	161476
#	175067
#	187964
#	201093
#	214528
#	229002
#	241524
#	255946
#
# Disc length: 3579 seconds
#
# Revision: 0
# Processed by: cddbd v1.5.2PL0 Copyright (c) Steve Scherf et al.
# Submitted via: CDex 1.51
#
DISCID=060df914
DTITLE=Various Artist - Cuban Cuts [CD3]
DYEAR=2005
DGENRE=Salsa
TTITLE0=Don Barreto - Nella
TTITLE1=Don Barreto - Lejos de Ti
TTITLE2=Don Barreto - Cubanacan
TTITLE3=Don Barreto - Bien Se Que No Me Quieres
TTITLE4=Don Barreto - Tumbando Cana
TTITLE5=Don Barreto - Chica Chica Boom Chic
TTITLE6=Don Barreto - Cocktails for Two
TTITLE7=Don Barreto - Yo Ta Namora
TTITLE8=Don Barreto - Minnie from Trinidad
TTITLE9=Don Barreto - No Te Merta en la Vida de Nadine
TTITLE10=Don Barreto - Cubanella
TTITLE11=Don Barreto - Tristessa
TTITLE12=Don Barreto - Babalu
TTITLE13=Don Barreto - Cecilia Mia
TTITLE14=Don Barreto - Bambarito
TTITLE15=Don Barreto - Parfum des Isles
TTITLE16=Antonio Machini - Para Que no Pago O Dale Que Ya Monte
TTITLE17=Antonio Machini - Arrancame la Vida
TTITLE18=Antonio Machini - Mujer
TTITLE19=Antonio Machini - La Hada Misteriosa
EXTD=YEAR: 2005
EXTT0=
EXTT1=
EXTT2=
EXTT3=
EXTT4=
EXTT5=
EXTT6=
EXTT7=
EXTT8=
EXTT9=
EXTT10=
EXTT11=
EXTT12=
EXTT13=
EXTT14=
EXTT15=
EXTT16=
EXTT17=
EXTT18=
EXTT19=
PLAYORDER=
